# xmcd
#
# Track frame offsets:
#	150
#	16323
#	30417
#	39627
#	70104
#	84697
#	105938
#	119873
#	138618
#	152782
#	169234
#	183622
#	198754
#	215836
#	228596
#	250436
#	268922
#	291331
#	308511
#	329407
#
# Disc length: 4580 seconds
#
# Revision: 0
# Processed by: cddbd v1.5.2PL0 Copyright (c) Steve Scherf et al.
# Submitted via: EasyCDDAExtractor 12.0.4.1
#
DISCID=2f11e214
DTITLE=Various Artist - Bajen P96 [CD.3)
DYEAR=2010
DGENRE=Alternative
TTITLE0=Judas Priest - United
TTITLE1=Grand Prix - Shout
TTITLE2=Queen - We Will Rock You
TTITLE3=Guns N' Roses - Paradise City
TTITLE4=Ratt - Lovin' You's A Dirty Job
TTITLE5=Twisted Sister - You Can´T Stop Rock´N´Roll
TTITLE6=Volbeat - Sad Man's Tongue
TTITLE7=Sammy Hagar - I Can't Drive 55
TTITLE8=P.O.D. - Boom
TTITLE9=Marilyn Manson - Arma-Goddamn-Motherfuckin-Geddon
TTITLE10=Clawfinger - Don't Get Me Wrong
TTITLE11=Warrant - Cherry Pie
TTITLE12=Poison - Unskinny Bop
TTITLE13=Flogging Molly - The Seven Deadly Sins
TTITLE14=Quiet Riot - Cum On Feel The Noize
TTITLE15=Riot - Born In America
TTITLE16=Saxon - 747 (Strangers In The Night)
TTITLE17=Scorpions - Make It Real
TTITLE18=Uriah Heep - Stealin'
TTITLE19=Sator - World
EXTD=
EXTT0=
EXTT1=
EXTT2=
EXTT3=
EXTT4=
EXTT5=
EXTT6=
EXTT7=
EXTT8=
EXTT9=
EXTT10=
EXTT11=
EXTT12=
EXTT13=
EXTT14=
EXTT15=
EXTT16=
EXTT17=
EXTT18=
EXTT19=
PLAYORDER=
